<?xml version="1.0" standalone="no"?>
<!DOCTYPE svg PUBLIC "-//W3C//DTD SVG 20010904//EN"
 "http://www.w3.org/TR/2001/REC-SVG-20010904/DTD/svg10.dtd">
<svg version="1.0" xmlns="http://www.w3.org/2000/svg"
 width="512.000000pt" height="512.000000pt" viewBox="0 0 512.000000 512.000000"
 preserveAspectRatio="xMidYMid meet">
<metadata>
Created by potrace 1.14, written by Peter Selinger 2001-2017
</metadata>
<g transform="translate(0.000000,512.000000) scale(0.100000,-0.100000)"
fill="#000000" stroke="none">
<path d="M2364 5105 c-125 -23 -196 -46 -319 -105 -239 -115 -421 -291 -539
-522 -68 -134 -76 -164 -80 -298 -3 -116 14 -223 57 -352 28 -83 31 -102 21
-117 -46 -66 -53 -202 -14 -285 32 -67 100 -131 166 -156 30 -11 63 -20 72
-20 12 0 30 -28 60 -92 69 -151 198 -292 335 -370 64 -37 62 -27 27 -148 l-19
-65 -83 -19 c-111 -24 -533 -140 -631 -172 -199 -66 -311 -167 -357 -324 -33
-113 -34 -127 -35 -545 -1 -445 0 -455 52 -472 15 -5 60 -9 99 -8 l70 1 1
-273 0 -273 -49 0 c-51 0 -85 -12 -104 -39 -16 -21 -18 -226 -3 -284 14 -57
65 -118 121 -145 43 -21 49 -21 1348 -21 1299 0 1305 0 1348 21 51 24 104 84
119 132 15 49 17 257 2 288 -15 33 -48 48 -108 48 l-48 0 1 273 1 272 75 1
c90 1 116 8 132 37 18 35 21 779 4 879 -28 157 -83 260 -176 330 -99 74 -225
117 -734 248 -103 27 -189 50 -190 52 -2 2 -13 41 -25 88 -21 78 -22 85 -6 95
180 109 275 208 361 379 50 100 51 101 90 103 168 12 290 136 295 298 2 68
-15 124 -56 185 -34 51 -37 70 -20 130 5 17 10 50 21 125 3 28 8 59 10 70 17
87 21 198 10 254 -40 201 -232 462 -445 605 -148 99 -246 139 -472 192 -50 12
-316 11 -385 -1z m391 -164 c157 -37 292 -97 407 -183 135 -99 268 -267 325
-409 23 -58 32 -158 19 -224 -9 -48 -16 -93 -21 -135 -4 -25 -9 -63 -13 -85
l-7 -40 -64 0 -65 0 -36 105 c-73 210 -158 345 -254 405 -43 26 -59 30 -115
29 -103 -1 -178 -50 -257 -168 -57 -85 -164 -179 -264 -230 -145 -75 -272
-104 -473 -110 -90 -2 -133 -8 -149 -18 -13 -8 -42 -18 -65 -21 -23 -4 -48
-10 -57 -13 -35 -14 -79 162 -79 316 0 99 2 111 34 185 51 118 121 220 218
315 120 119 244 196 398 248 60 21 80 26 173 41 63 11 285 6 345 -8z m207
-702 c59 -27 132 -162 208 -385 86 -249 96 -383 43 -544 -82 -248 -289 -428
-548 -475 -37 -6 -182 -7 -213 -1 -299 63 -498 249 -572 536 -22 82 -15 309 9
349 6 8 35 14 87 17 119 5 215 19 294 42 30 9 60 17 65 18 6 1 44 17 85 34
152 65 289 177 386 315 30 42 64 77 84 87 41 21 42 21 72 7z m515 -565 c88
-57 80 -204 -14 -249 -58 -28 -61 -24 -60 73 1 48 -2 113 -7 146 l-7 59 32 -7
c18 -3 44 -13 56 -22z m-1766 -26 c-4 -18 -7 -77 -7 -130 1 -94 0 -97 -19 -84
-75 50 -83 157 -18 222 40 40 54 37 44 -8z m799 -975 c103 -5 216 5 264 23 9
4 18 -12 29 -53 8 -32 18 -67 22 -79 5 -17 -13 -33 -125 -107 -144 -97 -135
-95 -210 -37 -19 15 -39 29 -45 31 -5 2 -42 26 -81 52 l-71 48 20 73 20 74 31
-10 c17 -5 83 -12 146 -15z m-107 -389 c17 -11 13 -16 -41 -53 -33 -22 -64
-42 -70 -43 -6 -2 -46 47 -90 109 l-80 111 36 9 c34 8 42 5 132 -56 52 -35
103 -70 113 -77z m590 128 c19 -8 23 -1 -95 -164 l-49 -67 -64 42 c-36 23 -64
45 -62 50 5 15 213 147 232 146 11 0 28 -4 38 -7z m-876 -278 c3 -7 -100 -11
-341 -11 -263 0 -353 -3 -378 -14 -77 -31 -130 -92 -144 -166 -4 -20 -7 -190
-6 -377 0 -188 -2 -348 -4 -358 -3 -9 -12 -15 -22 -13 -9 2 -21 4 -27 4 -6 1
-11 119 -12 329 -2 365 4 433 45 524 34 75 85 119 187 160 50 20 375 114 505
146 l35 8 79 -110 c43 -61 80 -116 83 -122z m1318 161 c242 -69 298 -88 356
-125 57 -38 94 -88 122 -171 20 -60 21 -84 22 -424 1 -198 0 -365 -2 -371 -3
-9 -16 -10 -54 -5 -3 1 -5 155 -5 344 1 188 -3 364 -7 390 -15 87 -68 150
-151 177 -29 9 -127 13 -365 13 -179 0 -329 2 -333 4 -4 2 8 25 27 51 20 26
56 78 81 115 55 82 27 81 309 2z m-798 -169 c2 -2 -29 -3 -69 -3 l-71 0 33 27
33 27 36 -24 c19 -13 37 -25 38 -27z m1048 -180 c14 -9 25 -22 26 -29 1 -16 1
-1398 0 -1414 -1 -19 -2301 -19 -2302 0 0 6 -1 328 -1 714 -1 743 -2 725 44
742 9 3 510 5 1113 5 993 -2 1098 -3 1120 -18z m194 -1678 c-1 -47 -7 -69 -22
-86 l-20 -22 -1274 0 -1274 0 -23 23 c-19 19 -24 35 -25 85 l-1 62 1321 0
1320 0 -2 -62z"/>
<path d="M2490 1479 c-144 -44 -220 -210 -156 -344 43 -91 117 -140 217 -144
178 -6 301 162 243 332 -19 55 -81 123 -132 144 -47 20 -127 25 -172 12z m138
-184 c50 -58 10 -144 -68 -144 -39 0 -61 13 -78 46 -50 93 76 178 146 98z"/>
</g>
</svg>
